<svg width="14" height="14" viewBox="0 0 14 14" fill="none" xmlns="http://www.w3.org/2000/svg">
<path fill-rule="evenodd" clip-rule="evenodd" d="M4.78402 0.472168C4.74285 0.472206 4.70183 0.475424 4.66135 0.481729C4.57933 0.494355 4.50142 0.519441 4.42961 0.55499C4.40571 0.566774 4.38235 0.579775 4.35963 0.593967L0.934587 2.62144C0.55438 2.84651 0.428542 3.33722 0.65352 3.71748C0.878497 4.09774 1.3691 4.22354 1.7493 3.99848L3.98407 2.6756L3.98407 7.27238C3.98407 7.7142 4.34225 8.07238 4.78407 8.07238C5.2259 8.07238 5.58407 7.7142 5.58407 7.27238V2.6756L7.81884 3.99848C8.19905 4.22355 8.68965 4.09774 8.91463 3.71748C9.1396 3.33722 9.01377 2.84651 8.63356 2.62144L5.20851 0.593963C5.18577 0.579758 5.16238 0.566746 5.13846 0.554953C5.10296 0.537386 5.06598 0.522374 5.02774 0.51016C4.94781 0.48451 4.8656 0.472096 4.78402 0.472168ZM9.21573 13.5276C9.25692 13.5276 9.29794 13.5244 9.33843 13.5181C9.42045 13.5055 9.49836 13.4804 9.57017 13.4448C9.59407 13.433 9.61743 13.42 9.64015 13.4058L13.0652 11.3784C13.4454 11.1533 13.5712 10.6626 13.3463 10.2823C13.1213 9.90208 12.6307 9.77627 12.2505 10.0013L10.0157 11.3242V6.72744C10.0157 6.28561 9.65754 5.92744 9.21571 5.92744C8.77389 5.92744 8.41571 6.28561 8.41571 6.72744V11.3242L6.18094 10.0013C5.80074 9.77627 5.31014 9.90208 5.08516 10.2823C4.86018 10.6626 4.98602 11.1533 5.36623 11.3784L8.79128 13.4059C8.81402 13.4201 8.8374 13.4331 8.86133 13.4449C8.89682 13.4624 8.93381 13.4774 8.97204 13.4897C9.05196 13.5153 9.13417 13.5277 9.21573 13.5276Z" fill="#272727"/>
</svg>
