<svg width="20" height="20" viewBox="0 0 20 20" fill="none" xmlns="http://www.w3.org/2000/svg">
<path fill-rule="evenodd" clip-rule="evenodd" d="M6.33371 15.6254L6.32883 15.7191C6.28173 16.1812 5.89122 16.5414 5.41672 16.5414C4.94221 16.5414 4.5517 16.1812 4.50461 15.7191L4.49973 15.6254L4.49973 8.20153C4.78367 8.31354 5.09304 8.37508 5.41678 8.37508C5.74048 8.37508 6.0498 8.31356 6.33371 8.20158L6.33371 15.6254ZM5.41678 3.37508C5.09304 3.37508 4.78366 3.43662 4.49973 3.54864L4.49973 2.70837C4.49973 2.20211 4.91046 1.79138 5.41672 1.79138C5.92298 1.79138 6.33371 2.20211 6.33371 2.70837V3.54859C6.0498 3.4366 5.74048 3.37508 5.41678 3.37508ZM15.5004 15.6255L15.4956 15.7192C15.4485 16.1813 15.058 16.5415 14.5835 16.5415C14.1089 16.5415 13.7184 16.1813 13.6713 15.7192L13.6665 15.6255L13.6665 8.20158C13.9504 8.31357 14.2597 8.37509 14.5834 8.37509C14.9072 8.37509 15.2165 8.31356 15.5004 8.20155L15.5004 15.6255ZM14.5834 3.37509C14.2597 3.37509 13.9504 3.43661 13.6665 3.54861V2.70849C13.6665 2.20222 14.0772 1.79149 14.5835 1.79149C15.0897 1.79149 15.5004 2.20222 15.5004 2.70849V3.54864C15.2165 3.43663 14.9072 3.37509 14.5834 3.37509ZM9.08778 4.28078L9.0829 4.37453V11.7984C9.36683 11.6864 9.6762 11.6248 9.99993 11.6248C10.3236 11.6248 10.633 11.6863 10.9169 11.7983V4.37453L10.912 4.28078C10.8649 3.81871 10.4744 3.45852 9.99989 3.45852C9.52539 3.45852 9.13488 3.81871 9.08778 4.28078ZM10.9169 16.4513C10.633 16.5633 10.3236 16.6248 9.99993 16.6248C9.6762 16.6248 9.36683 16.5633 9.0829 16.4513V17.2915C9.0829 17.7978 9.49363 18.2085 9.99989 18.2085C10.5062 18.2085 10.9169 17.7978 10.9169 17.2915V16.4513ZM5.41666 5.33307C5.71581 5.33307 5.95865 5.57591 5.95865 5.87507C5.95865 6.17422 5.71581 6.41706 5.41666 6.41706C5.1175 6.41706 4.87466 6.17422 4.87466 5.87507C4.87466 5.57591 5.1175 5.33307 5.41666 5.33307ZM3.54166 5.87507C3.54166 6.9106 4.38112 7.75007 5.41666 7.75007C6.45219 7.75007 7.29166 6.9106 7.29166 5.87507C7.29166 4.83953 6.45219 4.00007 5.41666 4.00007C4.38112 4.00007 3.54166 4.83953 3.54166 5.87507ZM15.1253 5.87507C15.1253 5.57591 14.8824 5.33307 14.5833 5.33307C14.2841 5.33307 14.0413 5.57591 14.0413 5.87507C14.0413 6.17422 14.2841 6.41706 14.5833 6.41706C14.8824 6.41706 15.1253 6.17422 15.1253 5.87507ZM14.5833 7.75007C13.5477 7.75007 12.7083 6.9106 12.7083 5.87507C12.7083 4.83953 13.5477 4.00007 14.5833 4.00007C15.6188 4.00007 16.4583 4.83953 16.4583 5.87507C16.4583 6.9106 15.6188 7.75007 14.5833 7.75007ZM9.99991 14.667C9.70076 14.667 9.45792 14.4241 9.45792 14.125C9.45792 13.8258 9.70076 13.583 9.99991 13.583C10.2991 13.583 10.5419 13.8258 10.5419 14.125C10.5419 14.4241 10.2991 14.667 9.99991 14.667ZM11.8749 14.125C11.8749 13.0894 11.0354 12.25 9.99991 12.25C8.96438 12.25 8.12491 13.0894 8.12491 14.125C8.12491 15.1605 8.96438 16 9.99991 16C11.0354 16 11.8749 15.1605 11.8749 14.125Z" fill="#272727"/>
</svg>
